<svg width="64" height="64" viewBox="0 0 64 64" fill="none" xmlns="http://www.w3.org/2000/svg">
<g clip-path="url(#clip0_57_76)">
<path fill-rule="evenodd" clip-rule="evenodd" d="M32 0C40.5475 0 48.5835 3.32863 54.6274 9.37263C60.6715 15.4165 64 23.4525 64 32C64 40.5475 60.6715 48.5835 54.6274 54.6274C48.5835 60.6714 40.5475 64 32 64C23.4525 64 15.4165 60.6714 9.37263 54.6274C3.3285 48.5835 0 40.5475 0 32C0 23.4525 3.3285 15.4165 9.37263 9.37263C15.4165 3.32863 23.4525 0 32 0ZM13.7641 23.5495C16.8832 20.4304 21.9586 20.4301 25.0777 23.5495C25.8216 24.2934 25.8216 25.4994 25.0777 26.2432C24.706 26.6152 24.2184 26.8013 23.731 26.8013C23.2436 26.8013 22.7563 26.6152 22.3843 26.2432C20.7505 24.6095 18.092 24.6094 16.458 26.2432C15.7143 26.987 14.5081 26.987 13.7641 26.2432C13.0203 25.4994 13.0203 24.2932 13.7641 23.5495ZM50.2355 23.5495C47.1164 20.4304 42.041 20.4301 38.9219 23.5495C38.178 24.2932 38.178 25.4994 38.9219 26.2432C39.6659 26.987 40.872 26.987 41.6157 26.2432C43.2495 24.6094 45.908 24.6092 47.542 26.2432C47.914 26.6152 48.4014 26.8013 48.8887 26.8013C49.3761 26.8013 49.8638 26.6152 50.2355 26.2432C50.9794 25.4994 50.9794 24.2934 50.2355 23.5495ZM13.2064 35.3016C13.2064 34.2497 14.0591 33.3969 15.1111 33.3969H48.8889C49.9409 33.3969 50.7936 34.2496 50.7936 35.3016C50.7936 45.6644 42.3628 54.0952 32 54.0952C21.6372 54.0952 13.2064 45.6644 13.2064 35.3016ZM17.1364 37.2064C18.0748 44.5729 24.3827 50.2858 32 50.2858C39.6172 50.2858 45.9253 44.5729 46.8638 37.2064H17.1364Z" fill="#FFCB00"/>
</g>
<defs>
<clipPath id="clip0_57_76">
<rect width="64" height="64" fill="white"/>
</clipPath>
</defs>
</svg>
