<svg width="64" height="60" viewBox="0 0 64 60" fill="none" xmlns="http://www.w3.org/2000/svg">
<g clip-path="url(#clip0_57_103)">
<path d="M31.9999 0C30.9635 0 30.125 0.838618 30.125 1.87494V7.4999C30.125 8.53628 30.9635 9.37485 31.9999 9.37485C33.0364 9.37485 33.8749 8.53622 33.8749 7.4999V1.87494C33.8749 0.838566 33.0364 0 31.9999 0Z" fill="#F3502F"/>
<path d="M22.075 11.7993L18.325 8.04928C17.5924 7.31691 16.406 7.31691 15.6736 8.04928C14.9412 8.78165 14.9412 9.96826 15.6736 10.7007L19.4236 14.4506C20.156 15.183 21.3426 15.183 22.075 14.4506C22.8073 13.7183 22.8073 12.5316 22.075 11.7993Z" fill="#F3502F"/>
<path d="M45.6742 8.04928C46.4066 7.31691 47.5932 7.31691 48.3256 8.04928C49.0579 8.78165 49.0579 9.96826 48.3256 10.7007L44.5756 14.4506C43.8432 15.183 42.6566 15.183 41.9242 14.4506C41.1919 13.7183 41.1919 12.5316 41.9242 11.7993L45.6742 8.04928Z" fill="#F3502F"/>
<path d="M62.1248 26.2502H56.3748V52.5005H62.1248C63.1611 52.5005 63.9997 51.6618 63.9997 50.6255V28.1257C63.9997 27.0894 63.1611 26.2502 62.1248 26.2502Z" fill="#F3502F"/>
<path d="M0 28.1254C0 27.0891 0.838618 26.2505 1.87494 26.2505H7.62496V52.5007H1.87494C0.838566 52.5007 0 51.6621 0 50.6258L0 28.1254Z" fill="#F3502F"/>
<path d="M30.569 28.1254C29.1388 28.1254 27.8534 28.92 27.2145 30.1982L21.5071 41.6166C22.4629 42.0358 23.4735 42.2483 24.5064 42.2483C27.3609 42.2483 29.9299 40.6572 31.2097 38.0936L32.4439 35.6254H36.0731C37.0601 35.6254 38.0268 36.0264 38.7244 36.724L52.6252 50.6248V28.125L30.569 28.1254Z" fill="#F3502F"/>
<path d="M34.761 39.3753H36.072L49.3904 52.6937C48.7325 53.3688 47.9257 53.8952 46.9686 54.1647L30.9558 59.1983C29.0425 59.838 26.8248 59.3519 25.285 57.8121L19.9732 52.5003H11.3745V26.25H14.6814C15.3919 26.25 16.0411 25.8485 16.359 25.2131L18.0354 21.86C18.9886 19.9538 20.9365 18.75 23.0677 18.75H37.6239C38.6603 18.75 39.4989 19.5887 39.4989 20.6249C39.4989 21.9687 39.178 23.2246 38.6586 24.375H30.567C27.7255 24.375 25.1276 25.9806 23.8572 28.5224L17.2603 41.7192C16.7835 42.6728 17.2058 43.8324 18.1763 44.2736C20.5627 45.3591 22.5754 46.1946 25.4796 45.957C29.4267 45.6343 32.8808 43.1336 34.652 39.5916L34.761 39.3753Z" fill="#F3502F"/>
</g>
<defs>
<clipPath id="clip0_57_103">
<rect width="64" height="59.4726" fill="white"/>
</clipPath>
</defs>
</svg>
