<svg width="64" height="72" viewBox="0 0 64 72" fill="none" xmlns="http://www.w3.org/2000/svg">
<mask id="mask0_57_91" style="mask-type:luminance" maskUnits="userSpaceOnUse" x="0" y="0" width="64" height="72">
<path d="M64 0H0V71.4014H64V0Z" fill="white"/>
</mask>
<g mask="url(#mask0_57_91)">
<path d="M44.1172 27.6875H43.6765V46.0758H44.1172C48.2598 46.0758 51.521 44.2074 51.521 36.7341C51.521 29.2608 48.2598 27.6875 44.1172 27.6875Z" fill="#4A76B9"/>
<path d="M7.97339 12.1072C3.55511 12.1072 -0.0266113 16.1031 -0.0266113 21.0323V52.6375C-0.0266113 57.5666 3.55511 61.5627 7.97339 61.5627H56.0268C60.4451 61.5627 64.0268 57.5666 64.0268 52.6375V21.0323C64.0268 16.1031 60.4451 12.1072 56.0268 12.1072H7.97339ZM29.7509 52.861H22.1708V40.1759H13.6212V52.861H6.04124V20.9026H13.6212V32.801H22.1708V20.9026H29.7509V52.861ZM44.9988 52.861H36.0967V20.9026H44.5582C53.284 20.9026 59.2775 25.4259 59.2775 36.7343C59.2775 48.0426 53.284 52.861 44.9988 52.861Z" fill="#4A76B9"/>
</g>
</svg>
