<svg width="16" height="16" viewBox="0 0 16 16" fill="none" xmlns="http://www.w3.org/2000/svg">
<g clip-path="url(#clip0_70_545)">
<path d="M15.7995 7.55759C16.0895 7.2386 16.0615 6.74969 15.7369 6.46589L8.58634 0.209092C8.26178 -0.0747385 7.74143 -0.0687985 7.42375 0.222496L0.248845 6.7995C-0.0688846 7.09079 -0.0844846 7.57907 0.214318 7.8897L0.394198 8.07703C0.692638 8.38762 1.17503 8.42465 1.471 8.1595L2.00722 7.6793V14.7095C2.00722 15.1408 2.35671 15.49 2.78773 15.49H5.58453C6.01555 15.49 6.36504 15.1408 6.36504 14.7095V9.7912H9.93244V14.7095C9.92623 15.1405 10.2346 15.4897 10.6657 15.4897H13.6296C14.0606 15.4897 14.4101 15.1405 14.4101 14.7092V7.7783C14.4101 7.7783 14.5582 7.90806 14.7409 8.06866C14.9233 8.22892 15.3064 8.10042 15.5964 7.78112L15.7995 7.55759Z" fill="#F3502F"/>
</g>
<defs>
<clipPath id="clip0_70_545">
<rect width="16" height="15.49" fill="white"/>
</clipPath>
</defs>
</svg>
