<svg width="59" height="49" viewBox="0 0 59 49" fill="none" xmlns="http://www.w3.org/2000/svg">
<g clip-path="url(#clip0_57_95)">
<path fill-rule="evenodd" clip-rule="evenodd" d="M35 42.6599C35 42.936 35.2239 43.1599 35.5 43.1599H48.411C48.6871 43.1599 48.911 43.3838 48.911 43.6599V46.3352C48.911 47.8044 50.1032 49 51.5683 49H55.0383C56.5034 49 57.6956 47.8044 57.6956 46.3352V33.6196C57.6956 31.7984 57.1343 28.946 56.4446 27.2615L56.1433 26.5255C56.0853 26.3837 56.1895 26.2284 56.3427 26.2284C57.8078 26.2284 59 25.0328 59 23.5636V22.072C59.0002 20.8135 58.1345 19.8997 56.942 19.8997C56.7245 19.8997 56.5012 19.9311 56.2779 19.9925L54.1823 20.5714C53.9383 20.6388 53.6824 20.5132 53.5865 20.2788L51.1347 14.2887C50.3922 12.4755 48.198 11 46.2435 11H35.5C35.2239 11 35 11.2239 35 11.5V12.6272C35 12.9034 35.2239 13.1272 35.5 13.1272H44.9496C46.1187 13.1272 47.4384 14.0146 47.8825 15.0995L51.8462 24.7811C52.2899 25.8657 51.6968 26.7533 50.5277 26.7533H35.5C35.2239 26.7533 35 26.9772 35 27.2533V42.6599ZM51.5192 38.093C52.1034 38.093 52.5819 37.6136 52.5819 37.0272V33.4037C52.5819 32.8176 52.1034 32.3379 51.5192 32.3379H43.9898C43.4056 32.3379 42.927 32.8176 42.927 33.4037V37.0272C42.927 37.6133 43.4056 38.093 43.9898 38.093H51.5192Z" fill="#94A4BC"/>
<path fill-rule="evenodd" clip-rule="evenodd" d="M31 22.915C31 22.6388 30.7761 22.415 30.5 22.415H22.3838C22.1004 22.415 21.875 22.6528 21.875 22.9362C21.875 25.9578 20.8016 28.8222 18.8743 31.0701C18.7949 31.1627 18.75 31.2803 18.75 31.4023V48.5C18.75 48.7761 18.9739 49 19.25 49H30.5C30.7761 49 31 48.7761 31 48.5V22.915ZM26.5625 35.9894C26.5625 36.2655 26.3386 36.4894 26.0625 36.4894H23.9375C23.6614 36.4894 23.4375 36.2655 23.4375 35.9894V30.7341C23.4375 30.458 23.6614 30.2341 23.9375 30.2341H26.0625C26.3386 30.2341 26.5625 30.458 26.5625 30.7341V35.9894Z" fill="#4A76B9"/>
<path d="M26.615 11.5736C26.5803 11.5042 26.5623 11.4277 26.5623 11.3502V5.19147C26.5623 4.91533 26.7861 4.69147 27.0623 4.69147H27.6248C27.9009 4.69147 28.1248 4.46762 28.1248 4.19147V2.06382C28.1248 1.78768 27.9009 1.56382 27.6248 1.56382H27.0623C26.7861 1.56382 26.5623 1.33997 26.5623 1.06382V0.5C26.5623 0.223858 26.3384 0 26.0623 0H23.9373C23.6611 0 23.4373 0.223858 23.4373 0.5V1.06382C23.4373 1.33997 23.2134 1.56382 22.9373 1.56382H22.3748C22.0986 1.56382 21.8748 1.78768 21.8748 2.06382V4.19147C21.8748 4.46762 22.0986 4.69147 22.3748 4.69147H22.9373C23.2134 4.69147 23.4373 4.91533 23.4373 5.19147V11.3501C23.4373 11.4276 23.4192 11.5041 23.3846 11.5735L20.6299 17.0877C20.5568 17.2341 20.5606 17.4067 20.6356 17.5522C20.8592 17.9863 21.0595 18.4472 21.2306 18.9376C21.3027 19.1443 21.495 19.2871 21.7139 19.2871H29.6598C30.0314 19.2871 30.2732 18.8961 30.1071 18.5637L26.615 11.5736Z" fill="#4A76B9"/>
<path d="M11.0947 12.7661C10.9932 12.674 10.9375 12.5426 10.9375 12.4056V7.27669C10.9375 7.00054 11.1614 6.77669 11.4375 6.77669H12C12.2761 6.77669 12.5 6.55283 12.5 6.27669V4.14903C12.5 3.87288 12.2761 3.64904 12 3.64904H11.4375C11.1614 3.64904 10.9375 3.42518 10.9375 3.14904V2.58521C10.9375 2.30907 10.7136 2.08521 10.4375 2.08521H8.3125C8.03636 2.08521 7.8125 2.30907 7.8125 2.58521V3.14904C7.8125 3.42518 7.58864 3.64904 7.3125 3.64904H6.75C6.47386 3.64904 6.25 3.87288 6.25 4.14903V6.27669C6.25 6.55283 6.47386 6.77669 6.75 6.77669H7.3125C7.58864 6.77669 7.8125 7.00054 7.8125 7.27669V12.4057C7.8125 12.5427 7.75676 12.6742 7.65524 12.7662C7.02914 13.3335 6.28303 13.8584 5.50595 14.405C2.92397 16.2212 0 18.2779 0 22.9361C0 24.4636 0.364901 25.9054 1.012 27.1798C1.15951 27.4703 1.54559 27.5181 1.77587 27.2877L13.6501 15.4033C13.8676 15.1856 13.8386 14.8252 13.5873 14.6476C13.4766 14.5692 13.3662 14.4916 13.2564 14.4143L13.2546 14.413L13.2535 14.4123L13.2498 14.4097L13.2482 14.4086C12.4696 13.8607 11.722 13.3347 11.0947 12.7661Z" fill="#4A76B9"/>
<path d="M3.125 31.7766C3.125 31.5004 3.34886 31.2766 3.625 31.2766H15.125C15.4011 31.2766 15.625 31.5004 15.625 31.7766V35.4681C15.625 35.7442 15.4011 35.9681 15.125 35.9681H3.625C3.34886 35.9681 3.125 35.7442 3.125 35.4681V31.7766Z" fill="#4A76B9"/>
<path d="M3.625 39.0957C3.34886 39.0957 3.125 39.3196 3.125 39.5957V48.4999C3.125 48.776 3.34886 48.9999 3.625 48.9999H7.3125C7.58864 48.9999 7.8125 48.776 7.8125 48.4999V43.2659C7.8125 42.4023 8.51211 41.7021 9.375 41.7021C10.2379 41.7021 10.9375 42.4023 10.9375 43.2659V48.5C10.9375 48.7761 11.1614 49 11.4375 49H15.125C15.4011 49 15.625 48.7761 15.625 48.5V39.5957C15.625 39.3196 15.4011 39.0957 15.125 39.0957H3.625Z" fill="#4A76B9"/>
<path d="M6.54104 28.1487C6.09569 28.1487 5.87256 27.6104 6.18734 27.2953L16.0906 17.3837C16.2904 17.1838 16.6172 17.1881 16.7994 17.4042C17.9412 18.758 18.7499 20.4872 18.7499 22.936C18.7499 24.7695 18.2243 26.4797 17.3157 27.9247C17.2269 28.066 17.0702 28.1487 16.9033 28.1487H6.54104Z" fill="#4A76B9"/>
</g>
<defs>
<clipPath id="clip0_57_95">
<rect width="59" height="49" fill="white"/>
</clipPath>
</defs>
</svg>
