<svg width="45" height="64" viewBox="0 0 45 64" fill="none" xmlns="http://www.w3.org/2000/svg">
<g clip-path="url(#clip0_57_92)">
<path d="M22.1543 44.3059C25.5394 44.3059 28.4362 43.1008 30.8464 40.6916C33.2561 38.2824 34.4611 35.3841 34.4611 31.9994V12.3079C34.4611 8.92302 33.257 6.02587 30.8464 3.6155C28.4362 1.20564 25.5394 -0.000244141 22.1543 -0.000244141C18.7696 -0.000244141 15.8723 1.20557 13.462 3.6155C11.0517 6.02548 9.84668 8.92302 9.84668 12.3079V31.9994C9.84668 35.3839 11.0522 38.2824 13.462 40.6916C15.8719 43.1008 18.7696 44.3059 22.1543 44.3059Z" fill="#ED472D"/>
<path d="M43.5762 25.3465C43.0905 24.8592 42.5123 24.6155 41.8455 24.6155C41.1795 24.6155 40.6026 24.8592 40.115 25.3465C39.6282 25.8335 39.3846 26.4104 39.3846 27.0768V32.0002C39.3846 36.744 37.6983 40.8013 34.3264 44.1731C30.9557 47.545 26.8977 49.2309 22.1538 49.2309C17.4101 49.2309 13.3525 47.545 9.98044 44.1731C6.60879 40.8024 4.92316 36.7441 4.92316 32.0002V27.0768C4.92316 26.4104 4.67946 25.8335 4.19247 25.3465C3.70522 24.8592 3.12892 24.6155 2.46178 24.6155C1.79465 24.6155 1.21771 24.8592 0.730713 25.3465C0.243314 25.8335 -0.000244141 26.4104 -0.000244141 27.0768V32.0002C-0.000244141 37.6669 1.89108 42.5965 5.67272 46.788C9.45448 50.98 14.1276 53.3837 19.6926 53.9986V59.0762H9.84654C9.17984 59.0762 8.60301 59.3201 8.11585 59.8073C7.62859 60.2942 7.38491 60.8714 7.38491 61.538C7.38491 62.2036 7.62859 62.7818 8.11585 63.2687C8.60298 63.7554 9.17981 63.9998 9.84654 63.9998H34.4609C35.1276 63.9998 35.7052 63.7556 36.1916 63.2687C36.6794 62.7819 36.9233 62.2037 36.9233 61.538C36.9233 60.8715 36.6794 60.2943 36.1916 59.8073C35.7054 59.3201 35.1277 59.0762 34.4609 59.0762H24.6162V53.9986C30.1797 53.3837 34.8524 50.98 38.6348 46.788C42.417 42.5962 44.3089 37.6665 44.3089 32.0002V27.0768C44.3089 26.4105 44.0642 25.8342 43.5762 25.3465Z" fill="#ED472D"/>
</g>
<defs>
<clipPath id="clip0_57_92">
<rect width="44.3085" height="64" fill="white"/>
</clipPath>
</defs>
</svg>
