<svg width="15" height="16" viewBox="0 0 15 16" fill="none" xmlns="http://www.w3.org/2000/svg">
<g clip-path="url(#clip0_70_535)">
<path d="M0.36379 13.454H2.90929V15.6361C2.90929 15.7423 2.94325 15.8292 3.0116 15.8971C3.07975 15.9655 3.16688 15.9997 3.27302 15.9997H5.17062C5.26911 15.9997 5.35432 15.9655 5.42631 15.8971C5.49829 15.8292 5.53417 15.7423 5.53417 15.6361V13.454H11.2728C11.3787 13.454 11.4659 13.4203 11.5342 13.3519C11.6026 13.2836 11.6365 13.1966 11.6365 13.0904V11.6358C11.6365 11.5303 11.6026 11.4427 11.5342 11.3748C11.4661 11.3064 11.3787 11.2723 11.2728 11.2723H5.53397V9.9313H9.39757C10.9127 9.9313 12.1493 9.46964 13.1079 8.545C14.0661 7.62134 14.5454 6.42819 14.5454 4.96549C14.5454 3.50379 14.0661 2.3106 13.1079 1.38599C12.1495 0.462305 10.9127 -0.000305176 9.39757 -0.000305176H3.27277C3.1666 -0.000305176 3.07966 0.0338508 3.01135 0.101815C2.94319 0.170158 2.90904 0.257665 2.90904 0.363235V7.51113H0.36374C0.2576 7.51113 0.17062 7.54704 0.10231 7.61899C0.034186 7.69097 0 7.77619 0 7.87464V9.56765C0 9.67381 0.033968 9.76079 0.10231 9.82911C0.170654 9.89748 0.25741 9.93122 0.36374 9.93122H2.90924V11.2722H0.36374C0.2576 11.2722 0.17062 11.3064 0.10231 11.3748C0.034186 11.4427 0 11.5301 0 11.6358V13.0904C0 13.1966 0.033968 13.2835 0.10231 13.3519C0.170622 13.4203 0.25762 13.454 0.36379 13.454ZM5.53399 2.41999H9.17039C9.97332 2.41999 10.6209 2.65475 11.1135 3.12444C11.6058 3.59416 11.8521 4.20805 11.8521 4.96524C11.8521 5.72289 11.6058 6.33694 11.1135 6.80604C10.6209 7.27613 9.97329 7.5109 9.17039 7.5109H5.53399V2.41999Z" fill="#F3502F"/>
</g>
<defs>
<clipPath id="clip0_70_535">
<rect width="14.545" height="16" fill="white"/>
</clipPath>
</defs>
</svg>
