<svg width="16" height="16" viewBox="0 0 16 16" fill="none" xmlns="http://www.w3.org/2000/svg">
<g clip-path="url(#clip0_70_517)">
<path d="M15.6531 6.94683C15.968 6.63991 16.0792 6.18944 15.9433 5.77073C15.8072 5.35199 15.4525 5.05307 15.0168 4.98964L11.1427 4.42672C10.9777 4.40269 10.8351 4.29921 10.7614 4.14959L9.02939 0.63949C8.83492 0.2451 8.4402 0 8.00029 0C7.56072 0 7.166 0.24509 6.97149 0.63949L5.23919 4.14999C5.1655 4.29961 5.02261 4.40309 4.85761 4.42712L0.983511 4.99004C0.548111 5.05315 0.193121 5.35239 0.0569607 5.77113C-0.0788793 6.18987 0.0322907 6.64034 0.347231 6.94723L3.15023 9.67953C3.26973 9.79613 3.32451 9.96403 3.29632 10.128L2.63505 13.9861C2.57642 14.3257 2.66548 14.656 2.88527 14.9165C3.2268 15.3224 3.82303 15.4461 4.29977 15.1955L7.76437 13.3738C7.90919 13.2979 8.09148 13.2985 8.23598 13.3738L11.7009 15.1955C11.8694 15.2843 12.0492 15.3291 12.2347 15.3291C12.5733 15.3291 12.8944 15.1786 13.1151 14.9165C13.3352 14.656 13.424 14.3251 13.3653 13.9861L12.7037 10.128C12.6755 9.96373 12.7303 9.79613 12.8498 9.67953L15.6531 6.94683Z" fill="#F3502F"/>
</g>
<defs>
<clipPath id="clip0_70_517">
<rect width="16" height="15.329" fill="white"/>
</clipPath>
</defs>
</svg>
