<svg width="16" height="13" viewBox="0 0 16 13" fill="none" xmlns="http://www.w3.org/2000/svg">
<g clip-path="url(#clip0_70_537)">
<path d="M15.3415 2.8399C15.2719 2.8399 15.2005 2.8499 15.129 2.86951L14.3215 3.09194L13.4832 1.04944C13.2456 0.470816 12.5434 0 11.918 0H4.07095C3.44542 0 2.74334 0.470816 2.50583 1.04944L1.66852 3.08909L0.87105 2.86944C0.799686 2.84983 0.72824 2.83983 0.658624 2.83983C0.27696 2.83983 0 3.1314 0 3.53298V4.00895C0 4.47778 0.381504 4.85931 0.850336 4.85931H0.941702L0.806358 5.18898C0.585674 5.72639 0.406038 6.63659 0.406038 7.21784V11.2754C0.406038 11.7443 0.787542 12.1258 1.25637 12.1258H2.36693C2.83577 12.1258 3.21727 11.7443 3.21727 11.2754V10.2622H12.7715V11.2754C12.7715 11.7443 13.153 12.1258 13.6218 12.1258H14.7322C15.2011 12.1258 15.5826 11.7443 15.5826 11.2754V7.21784C15.5826 6.63669 15.403 5.72648 15.1823 5.18898L15.0469 4.85931H15.1497C15.6185 4.85931 16 4.47781 16 4.00898V3.53301C16.0001 3.13141 15.7231 2.8399 15.3415 2.8399ZM2.27815 4.39753L3.54654 1.30812C3.68862 0.96201 4.11095 0.678778 4.48507 0.678778H11.5039C11.8781 0.678778 12.3004 0.961933 12.4425 1.30812L13.7109 4.39753C13.8529 4.74364 13.663 5.02687 13.2889 5.02687H2.70014C2.32593 5.02681 2.13614 4.74364 2.27815 4.39753ZM5.10948 8.30537C5.10948 8.49247 4.95636 8.64543 4.76942 8.64543H2.36001C2.17291 8.64543 2.01985 8.49238 2.01985 8.30537V7.14908C2.01985 6.96204 2.1729 6.80902 2.36001 6.80902H4.76942C4.95636 6.80902 5.10948 6.96204 5.10948 7.14908V8.30537ZM13.9463 8.30537C13.9463 8.49247 13.7932 8.64543 13.6062 8.64543H11.1968C11.0099 8.64543 10.8567 8.49238 10.8567 8.30537V7.14908C10.8567 6.96204 11.0099 6.80902 11.1968 6.80902H13.6062C13.7932 6.80902 13.9463 6.96204 13.9463 7.14908V8.30537Z" fill="#F3502F"/>
</g>
<defs>
<clipPath id="clip0_70_537">
<rect width="16" height="12.1258" fill="white"/>
</clipPath>
</defs>
</svg>
